ffmpeg started on 2026-04-01 at 10:41:09
Report written to "D:\Convert\FFMetrics\reports\ssim_report-6.txt"
Log level: 32
Command line:
ffmpeg -hide_banner -nostdin -r 24000/1001 -i "F:\\Convert\\files\\[DC] Make Heroine ga Oosugiru - 07_Telegram_HEVC(255).mkv" -r 24000/1001 -i "F:\\Convert\\files\\[DC] Make Heroine ga Oosugiru - 07_Telegram.mp4" -lavfi "[0:v]settb=AVTB,setpts=PTS-STARTPTS,format=pix_fmts=yuv420p10le,fps=24000/1001,scale=1920:1080:flags=lanczos:param0=3:out_range=limited:out_color_matrix=bt709:out_chroma_loc=left,setsar=1/1,setdar=(1920/1080)*(1/1),colorspace=format=yuv420p10:range=tv:primaries=bt709:trc=bt709:space=bt709:fast=0[main];[1:v]settb=AVTB,setpts=PTS-STARTPTS,format=pix_fmts=yuv420p,fps=24000/1001,scale=1920:1080:flags=lanczos:param0=3:out_range=limited:out_color_matrix=bt709:out_chroma_loc=left,setsar=1/1,setdar=(1920/1080)*(1/1),colorspace=format=yuv420p:range=tv:primaries=bt709:trc=bt709:space=bt709:fast=0[ref];[main][ref]ssim=eof_action=endall:stats_file='D\\:/Convert/FFMetrics/logs/ssim_logfile-6.txt'" -f null -
Input #0, matroska,webm, from 'F:\Convert\files\[DC] Make Heroine ga Oosugiru - 07_Telegram_HEVC(255).mkv':
  Metadata:
    COMPATIBLE_BRANDS: isomiso2avc1mp41
    MAJOR_BRAND     : isom
    MINOR_VERSION   : 512
    ENCODER         : Lavf61.7.100
  Duration: 00:24:06.79, start: -0.021000, bitrate: 982 kb/s
  Stream #0:0: Video: hevc (Main 10), yuv420p10le(tv, bt709, progressive), 1920x1080 [SAR 1:1 DAR 16:9], 23.98 fps, 23.98 tbr, 1k tbn (default)
      Metadata:
        HANDLER_NAME    : VideoHandler
        VENDOR_ID       : [0][0][0][0]
        ENCODER         : Lavc61.19.100 libx265
        BPS             : 784915
        DURATION        : 00:24:06.569708333
        NUMBER_OF_FRAMES: 34683
        NUMBER_OF_BYTES : 141929335
        _STATISTICS_WRITING_APP: mkvpropedit v94.0 ('Initiate') 64-bit
        _STATISTICS_WRITING_DATE_UTC: 2026-03-30 09:17:46
        _STATISTICS_TAGS: BPS DURATION NUMBER_OF_FRAMES NUMBER_OF_BYTES
  Stream #0:1: Audio: aac (LC), 48000 Hz, stereo, fltp (default)
      Metadata:
        HANDLER_NAME    : SoundHandler
        VENDOR_ID       : [0][0][0][0]
        ENCODER         : Lavc61.19.100 aac
        BPS             : 193194
        DURATION        : 00:24:06.784000000
        NUMBER_OF_FRAMES: 67819
        NUMBER_OF_BYTES : 34938755
        _STATISTICS_WRITING_APP: mkvpropedit v94.0 ('Initiate') 64-bit
        _STATISTICS_WRITING_DATE_UTC: 2026-03-30 09:17:46
        _STATISTICS_TAGS: BPS DURATION NUMBER_OF_FRAMES NUMBER_OF_BYTES
Input #1, mov,mp4,m4a,3gp,3g2,mj2, from 'F:\Convert\files\[DC] Make Heroine ga Oosugiru - 07_Telegram.mp4':
  Metadata:
    major_brand     : isom
    minor_version   : 512
    compatible_brands: isomiso2avc1mp41
    encoder         : Lavf60.16.100
  Duration: 00:24:06.74, start: 0.000000, bitrate: 3764 kb/s
  Stream #1:0[0x1](und): Video: h264 (High) (avc1 / 0x31637661), yuv420p(tv, bt709, progressive), 1920x1080 [SAR 1:1 DAR 16:9], 3616 kb/s, 23.98 fps, 23.98 tbr, 24k tbn (default)
      Metadata:
        handler_name    : VideoHandler
        vendor_id       : [0][0][0][0]
        encoder         : Lavc60.31.102 h264_qsv
  Stream #1:1[0x2](und): Audio: aac (HE-AACv2) (mp4a / 0x6134706D), 48000 Hz, stereo, fltp, 144 kb/s (default)
      Metadata:
        handler_name    : SoundHandler
        vendor_id       : [0][0][0][0]
Stream mapping:
  Stream #0:0 (hevc) -> settb:default
  Stream #1:0 (h264) -> settb:default
  ssim:default -> Stream #0:0 (wrapped_avframe)
  Stream #0:1 -> #0:1 (aac (native) -> pcm_s16le (native))
Output #0, null, to 'pipe:':
  Metadata:
    COMPATIBLE_BRANDS: isomiso2avc1mp41
    MAJOR_BRAND     : isom
    MINOR_VERSION   : 512
    encoder         : Lavf61.7.100
  Stream #0:0: Video: wrapped_avframe, yuv420p10le(tv, bt709, progressive), 1920x1080 [SAR 1:1 DAR 16:9], q=2-31, 200 kb/s, 23.98 fps, 23.98 tbn
      Metadata:
        encoder         : Lavc61.19.100 wrapped_avframe
  Stream #0:1: Audio: pcm_s16le, 48000 Hz, stereo, s16, 1536 kb/s (default)
      Metadata:
        HANDLER_NAME    : SoundHandler
        VENDOR_ID       : [0][0][0][0]
        _STATISTICS_TAGS: BPS DURATION NUMBER_OF_FRAMES NUMBER_OF_BYTES
        BPS             : 193194
        DURATION        : 00:24:06.784000000
        NUMBER_OF_FRAMES: 67819
        NUMBER_OF_BYTES : 34938755
        _STATISTICS_WRITING_APP: mkvpropedit v94.0 ('Initiate') 64-bit
        _STATISTICS_WRITING_DATE_UTC: 2026-03-30 09:17:46
        encoder         : Lavc61.19.100 pcm_s16le
frame=  117 fps=0.0 q=-0.0 size=N/A time=00:00:04.87 bitrate=N/A speed=9.55x    frame=  313 fps=301 q=-0.0 size=N/A time=00:00:13.05 bitrate=N/A speed=12.6x    frame=  487 fps=314 q=-0.0 size=N/A time=00:00:20.31 bitrate=N/A speed=13.1x    frame=  661 fps=321 q=-0.0 size=N/A time=00:00:27.56 bitrate=N/A speed=13.4x    frame=  855 fps=331 q=-0.0 size=N/A time=00:00:35.66 bitrate=N/A speed=13.8x    frame=  987 fps=319 q=-0.0 size=N/A time=00:00:41.16 bitrate=N/A speed=13.3x    frame= 1142 fps=317 q=-0.0 size=N/A time=00:00:47.63 bitrate=N/A speed=13.2x    frame= 1303 fps=315 q=-0.0 size=N/A time=00:00:54.34 bitrate=N/A speed=13.2x    frame= 1454 fps=313 q=-0.0 size=N/A time=00:01:00.64 bitrate=N/A speed=13.1x    frame= 1597 fps=310 q=-0.0 size=N/A time=00:01:06.60 bitrate=N/A speed=12.9x    frame= 1756 fps=309 q=-0.0 size=N/A time=00:01:13.23 bitrate=N/A speed=12.9x    frame= 1909 fps=309 q=-0.0 size=N/A time=00:01:19.62 bitrate=N/A speed=12.9x    frame= 2058 fps=307 q=-0.0 size=N/A time=00:01:25.83 bitrate=N/A speed=12.8x    frame= 2175 fps=300 q=-0.0 size=N/A time=00:01:30.71 bitrate=N/A speed=12.5x    frame= 2328 fps=300 q=-0.0 size=N/A time=00:01:37.09 bitrate=N/A speed=12.5x    frame= 2453 fps=297 q=-0.0 size=N/A time=00:01:42.31 bitrate=N/A speed=12.4x    frame= 2582 fps=294 q=-0.0 size=N/A time=00:01:47.69 bitrate=N/A speed=12.3x    frame= 2742 fps=295 q=-0.0 size=N/A time=00:01:54.36 bitrate=N/A speed=12.3x    frame= 2911 fps=297 q=-0.0 size=N/A time=00:02:01.41 bitrate=N/A speed=12.4x    frame= 3087 fps=299 q=-0.0 size=N/A time=00:02:08.75 bitrate=N/A speed=12.5x    frame= 3264 fps=301 q=-0.0 size=N/A time=00:02:16.13 bitrate=N/A speed=12.6x    frame= 3441 fps=303 q=-0.0 size=N/A time=00:02:23.51 bitrate=N/A speed=12.6x    frame= 3638 fps=306 q=-0.0 size=N/A time=00:02:31.73 bitrate=N/A speed=12.8x    frame= 3823 fps=309 q=-0.0 size=N/A time=00:02:39.45 bitrate=N/A speed=12.9x    frame= 4009 fps=311 q=-0.0 size=N/A time=00:02:47.20 bitrate=N/A speed=  13x    frame= 4194 fps=312 q=-0.0 size=N/A time=00:02:54.92 bitrate=N/A speed=  13x    frame= 4377 fps=314 q=-0.0 size=N/A time=00:03:02.55 bitrate=N/A speed=13.1x    frame= 4564 fps=316 q=-0.0 size=N/A time=00:03:10.35 bitrate=N/A speed=13.2x    frame= 4747 fps=317 q=-0.0 size=N/A time=00:03:17.98 bitrate=N/A speed=13.2x    frame= 4934 fps=319 q=-0.0 size=N/A time=00:03:25.78 bitrate=N/A speed=13.3x    frame= 5118 fps=320 q=-0.0 size=N/A time=00:03:33.46 bitrate=N/A speed=13.3x    frame= 5304 fps=321 q=-0.0 size=N/A time=00:03:41.22 bitrate=N/A speed=13.4x    frame= 5485 fps=322 q=-0.0 size=N/A time=00:03:48.77 bitrate=N/A speed=13.4x    frame= 5670 fps=323 q=-0.0 size=N/A time=00:03:56.48 bitrate=N/A speed=13.5x    frame= 5854 fps=324 q=-0.0 size=N/A time=00:04:04.16 bitrate=N/A speed=13.5x    frame= 6036 fps=325 q=-0.0 size=N/A time=00:04:11.75 bitrate=N/A speed=13.5x    frame= 6217 fps=326 q=-0.0 size=N/A time=00:04:19.30 bitrate=N/A speed=13.6x    frame= 6394 fps=326 q=-0.0 size=N/A time=00:04:26.68 bitrate=N/A speed=13.6x    frame= 6591 fps=327 q=-0.0 size=N/A time=00:04:34.89 bitrate=N/A speed=13.7x    frame= 6774 fps=328 q=-0.0 size=N/A time=00:04:42.57 bitrate=N/A speed=13.7x    frame= 6960 fps=329 q=-0.0 size=N/A time=00:04:50.29 bitrate=N/A speed=13.7x    frame= 7143 fps=330 q=-0.0 size=N/A time=00:04:57.92 bitrate=N/A speed=13.7x    frame= 7325 fps=330 q=-0.0 size=N/A time=00:05:05.51 bitrate=N/A speed=13.8x    frame= 7500 fps=330 q=-0.0 size=N/A time=00:05:12.81 bitrate=N/A speed=13.8x    frame= 7677 fps=330 q=-0.0 size=N/A time=00:05:20.19 bitrate=N/A speed=13.8x    frame= 7857 fps=331 q=-0.0 size=N/A time=00:05:27.70 bitrate=N/A speed=13.8x    frame= 8038 fps=331 q=-0.0 size=N/A time=00:05:35.25 bitrate=N/A speed=13.8x    frame= 8212 fps=332 q=-0.0 size=N/A time=00:05:42.50 bitrate=N/A speed=13.8x    frame= 8386 fps=332 q=-0.0 size=N/A time=00:05:49.76 bitrate=N/A speed=13.8x    frame= 8540 fps=331 q=-0.0 size=N/A time=00:05:56.18 bitrate=N/A speed=13.8x    frame= 8716 fps=331 q=-0.0 size=N/A time=00:06:03.52 bitrate=N/A speed=13.8x    frame= 8905 fps=332 q=-0.0 size=N/A time=00:06:11.41 bitrate=N/A speed=13.8x    frame= 9060 fps=331 q=-0.0 size=N/A time=00:06:17.87 bitrate=N/A speed=13.8x    frame= 9241 fps=332 q=-0.0 size=N/A time=00:06:25.42 bitrate=N/A speed=13.8x    frame= 9416 fps=332 q=-0.0 size=N/A time=00:06:32.72 bitrate=N/A speed=13.8x    frame= 9602 fps=332 q=-0.0 size=N/A time=00:06:40.48 bitrate=N/A speed=13.9x    frame= 9778 fps=332 q=-0.0 size=N/A time=00:06:47.82 bitrate=N/A speed=13.9x    frame= 9955 fps=333 q=-0.0 size=N/A time=00:06:55.20 bitrate=N/A speed=13.9x    frame=10139 fps=333 q=-0.0 size=N/A time=00:07:02.88 bitrate=N/A speed=13.9x    frame=10313 fps=333 q=-0.0 size=N/A time=00:07:10.13 bitrate=N/A speed=13.9x    frame=10489 fps=333 q=-0.0 size=N/A time=00:07:17.47 bitrate=N/A speed=13.9x    frame=10669 fps=333 q=-0.0 size=N/A time=00:07:24.98 bitrate=N/A speed=13.9x    frame=10846 fps=333 q=-0.0 size=N/A time=00:07:32.36 bitrate=N/A speed=13.9x    frame=11013 fps=333 q=-0.0 size=N/A time=00:07:39.33 bitrate=N/A speed=13.9x    frame=11182 fps=333 q=-0.0 size=N/A time=00:07:46.38 bitrate=N/A speed=13.9x    frame=11361 fps=333 q=-0.0 size=N/A time=00:07:53.84 bitrate=N/A speed=13.9x    frame=11534 fps=333 q=-0.0 size=N/A time=00:08:01.06 bitrate=N/A speed=13.9x    frame=11708 fps=333 q=-0.0 size=N/A time=00:08:08.32 bitrate=N/A speed=13.9x    frame=11883 fps=334 q=-0.0 size=N/A time=00:08:15.62 bitrate=N/A speed=13.9x    frame=12070 fps=334 q=-0.0 size=N/A time=00:08:23.41 bitrate=N/A speed=13.9x    frame=12241 fps=334 q=-0.0 size=N/A time=00:08:30.55 bitrate=N/A speed=13.9x    frame=12426 fps=334 q=-0.0 size=N/A time=00:08:38.26 bitrate=N/A speed=13.9x    frame=12605 fps=334 q=-0.0 size=N/A time=00:08:45.73 bitrate=N/A speed=13.9x    frame=12799 fps=335 q=-0.0 size=N/A time=00:08:53.82 bitrate=N/A speed=  14x    frame=12985 fps=335 q=-0.0 size=N/A time=00:09:01.58 bitrate=N/A speed=  14x    frame=13159 fps=335 q=-0.0 size=N/A time=00:09:08.83 bitrate=N/A speed=  14x    frame=13337 fps=336 q=-0.0 size=N/A time=00:09:16.26 bitrate=N/A speed=  14x    frame=13522 fps=336 q=-0.0 size=N/A time=00:09:23.98 bitrate=N/A speed=  14x    frame=13713 fps=336 q=-0.0 size=N/A time=00:09:31.94 bitrate=N/A speed=  14x    frame=13888 fps=336 q=-0.0 size=N/A time=00:09:39.24 bitrate=N/A speed=  14x    frame=14068 fps=336 q=-0.0 size=N/A time=00:09:46.75 bitrate=N/A speed=  14x    frame=14238 fps=336 q=-0.0 size=N/A time=00:09:53.84 bitrate=N/A speed=  14x    frame=14422 fps=337 q=-0.0 size=N/A time=00:10:01.51 bitrate=N/A speed=  14x    frame=14600 fps=337 q=-0.0 size=N/A time=00:10:08.94 bitrate=N/A speed=  14x    frame=14779 fps=337 q=-0.0 size=N/A time=00:10:16.40 bitrate=N/A speed=  14x    frame=14960 fps=337 q=-0.0 size=N/A time=00:10:23.95 bitrate=N/A speed=14.1x    frame=15120 fps=337 q=-0.0 size=N/A time=00:10:30.63 bitrate=N/A speed=  14x    frame=15285 fps=337 q=-0.0 size=N/A time=00:10:37.51 bitrate=N/A speed=  14x    frame=15473 fps=337 q=-0.0 size=N/A time=00:10:45.35 bitrate=N/A speed=  14x    frame=15652 fps=337 q=-0.0 size=N/A time=00:10:52.81 bitrate=N/A speed=14.1x    frame=15832 fps=337 q=-0.0 size=N/A time=00:11:00.32 bitrate=N/A speed=14.1x    frame=16019 fps=337 q=-0.0 size=N/A time=00:11:08.12 bitrate=N/A speed=14.1x    frame=16201 fps=338 q=-0.0 size=N/A time=00:11:15.71 bitrate=N/A speed=14.1x    frame=16389 fps=338 q=-0.0 size=N/A time=00:11:23.55 bitrate=N/A speed=14.1x    frame=16576 fps=338 q=-0.0 size=N/A time=00:11:31.35 bitrate=N/A speed=14.1x    frame=16764 fps=338 q=-0.0 size=N/A time=00:11:39.19 bitrate=N/A speed=14.1x    frame=16946 fps=338 q=-0.0 size=N/A time=00:11:46.78 bitrate=N/A speed=14.1x    frame=17131 fps=339 q=-0.0 size=N/A time=00:11:54.50 bitrate=N/A speed=14.1x    frame=17318 fps=339 q=-0.0 size=N/A time=00:12:02.30 bitrate=N/A speed=14.1x    frame=17501 fps=339 q=-0.0 size=N/A time=00:12:09.93 bitrate=N/A speed=14.1x    frame=17677 fps=339 q=-0.0 size=N/A time=00:12:17.27 bitrate=N/A speed=14.1x    frame=17860 fps=339 q=-0.0 size=N/A time=00:12:24.91 bitrate=N/A speed=14.2x    frame=18042 fps=339 q=-0.0 size=N/A time=00:12:32.50 bitrate=N/A speed=14.2x    frame=18221 fps=339 q=-0.0 size=N/A time=00:12:39.96 bitrate=N/A speed=14.2x    frame=18391 fps=339 q=-0.0 size=N/A time=00:12:47.05 bitrate=N/A speed=14.2x    frame=18583 fps=340 q=-0.0 size=N/A time=00:12:55.06 bitrate=N/A speed=14.2x    frame=18771 fps=340 q=-0.0 size=N/A time=00:13:02.90 bitrate=N/A speed=14.2x    frame=18961 fps=340 q=-0.0 size=N/A time=00:13:10.83 bitrate=N/A speed=14.2x    frame=19149 fps=340 q=-0.0 size=N/A time=00:13:18.67 bitrate=N/A speed=14.2x    frame=19334 fps=341 q=-0.0 size=N/A time=00:13:26.38 bitrate=N/A speed=14.2x    frame=19514 fps=341 q=-0.0 size=N/A time=00:13:33.89 bitrate=N/A speed=14.2x    frame=19690 fps=341 q=-0.0 size=N/A time=00:13:41.23 bitrate=N/A speed=14.2x    frame=19862 fps=341 q=-0.0 size=N/A time=00:13:48.41 bitrate=N/A speed=14.2x    frame=20044 fps=341 q=-0.0 size=N/A time=00:13:56.00 bitrate=N/A speed=14.2x    frame=20228 fps=341 q=-0.0 size=N/A time=00:14:03.67 bitrate=N/A speed=14.2x    frame=20402 fps=341 q=-0.0 size=N/A time=00:14:10.93 bitrate=N/A speed=14.2x    frame=20575 fps=341 q=-0.0 size=N/A time=00:14:18.14 bitrate=N/A speed=14.2x    frame=20756 fps=341 q=-0.0 size=N/A time=00:14:25.69 bitrate=N/A speed=14.2x    frame=20935 fps=341 q=-0.0 size=N/A time=00:14:33.16 bitrate=N/A speed=14.2x    frame=21117 fps=341 q=-0.0 size=N/A time=00:14:40.75 bitrate=N/A speed=14.2x    frame=21303 fps=341 q=-0.0 size=N/A time=00:14:48.51 bitrate=N/A speed=14.2x    frame=21476 fps=341 q=-0.0 size=N/A time=00:14:55.72 bitrate=N/A speed=14.2x    frame=21666 fps=341 q=-0.0 size=N/A time=00:15:03.65 bitrate=N/A speed=14.2x    frame=21851 fps=341 q=-0.0 size=N/A time=00:15:11.36 bitrate=N/A speed=14.2x    frame=22034 fps=342 q=-0.0 size=N/A time=00:15:19.00 bitrate=N/A speed=14.2x    frame=22217 fps=342 q=-0.0 size=N/A time=00:15:26.63 bitrate=N/A speed=14.3x    frame=22402 fps=342 q=-0.0 size=N/A time=00:15:34.35 bitrate=N/A speed=14.3x    frame=22577 fps=342 q=-0.0 size=N/A time=00:15:41.64 bitrate=N/A speed=14.3x    frame=22750 fps=342 q=-0.0 size=N/A time=00:15:48.86 bitrate=N/A speed=14.3x    frame=22933 fps=342 q=-0.0 size=N/A time=00:15:56.49 bitrate=N/A speed=14.3x    frame=23115 fps=342 q=-0.0 size=N/A time=00:16:04.08 bitrate=N/A speed=14.3x    frame=23294 fps=342 q=-0.0 size=N/A time=00:16:11.55 bitrate=N/A speed=14.3x    frame=23492 fps=342 q=-0.0 size=N/A time=00:16:19.81 bitrate=N/A speed=14.3x    frame=23671 fps=342 q=-0.0 size=N/A time=00:16:27.27 bitrate=N/A speed=14.3x    frame=23854 fps=342 q=-0.0 size=N/A time=00:16:34.91 bitrate=N/A speed=14.3x    frame=24036 fps=342 q=-0.0 size=N/A time=00:16:42.50 bitrate=N/A speed=14.3x    frame=24215 fps=343 q=-0.0 size=N/A time=00:16:49.96 bitrate=N/A speed=14.3x    frame=24393 fps=343 q=-0.0 size=N/A time=00:16:57.39 bitrate=N/A speed=14.3x    frame=24571 fps=343 q=-0.0 size=N/A time=00:17:04.81 bitrate=N/A speed=14.3x    frame=24752 fps=343 q=-0.0 size=N/A time=00:17:12.36 bitrate=N/A speed=14.3x    frame=24934 fps=343 q=-0.0 size=N/A time=00:17:19.95 bitrate=N/A speed=14.3x    frame=25122 fps=343 q=-0.0 size=N/A time=00:17:27.79 bitrate=N/A speed=14.3x    frame=25297 fps=343 q=-0.0 size=N/A time=00:17:35.09 bitrate=N/A speed=14.3x    frame=25486 fps=343 q=-0.0 size=N/A time=00:17:42.97 bitrate=N/A speed=14.3x    frame=25662 fps=343 q=-0.0 size=N/A time=00:17:50.31 bitrate=N/A speed=14.3x    frame=25844 fps=343 q=-0.0 size=N/A time=00:17:57.91 bitrate=N/A speed=14.3x    frame=26020 fps=343 q=-0.0 size=N/A time=00:18:05.25 bitrate=N/A speed=14.3x    frame=26206 fps=343 q=-0.0 size=N/A time=00:18:13.00 bitrate=N/A speed=14.3x    frame=26389 fps=343 q=-0.0 size=N/A time=00:18:20.64 bitrate=N/A speed=14.3x    frame=26574 fps=343 q=-0.0 size=N/A time=00:18:28.35 bitrate=N/A speed=14.3x    frame=26763 fps=344 q=-0.0 size=N/A time=00:18:36.24 bitrate=N/A speed=14.3x    frame=26944 fps=344 q=-0.0 size=N/A time=00:18:43.78 bitrate=N/A speed=14.3x    frame=27113 fps=343 q=-0.0 size=N/A time=00:18:50.83 bitrate=N/A speed=14.3x    frame=27293 fps=344 q=-0.0 size=N/A time=00:18:58.34 bitrate=N/A speed=14.3x    frame=27470 fps=343 q=-0.0 size=N/A time=00:19:05.72 bitrate=N/A speed=14.3x    frame=27654 fps=343 q=-0.0 size=N/A time=00:19:13.40 bitrate=N/A speed=14.3x    frame=27833 fps=344 q=-0.0 size=N/A time=00:19:20.86 bitrate=N/A speed=14.3x    frame=28009 fps=344 q=-0.0 size=N/A time=00:19:28.20 bitrate=N/A speed=14.3x    frame=28200 fps=344 q=-0.0 size=N/A time=00:19:36.17 bitrate=N/A speed=14.3x    frame=28386 fps=344 q=-0.0 size=N/A time=00:19:43.93 bitrate=N/A speed=14.3x    frame=28558 fps=344 q=-0.0 size=N/A time=00:19:51.10 bitrate=N/A speed=14.3x    frame=28735 fps=344 q=-0.0 size=N/A time=00:19:58.48 bitrate=N/A speed=14.3x    frame=28904 fps=344 q=-0.0 size=N/A time=00:20:05.53 bitrate=N/A speed=14.3x    frame=29058 fps=343 q=-0.0 size=N/A time=00:20:11.96 bitrate=N/A speed=14.3x    frame=29236 fps=343 q=-0.0 size=N/A time=00:20:19.38 bitrate=N/A speed=14.3x    frame=29406 fps=343 q=-0.0 size=N/A time=00:20:26.47 bitrate=N/A speed=14.3x    frame=29563 fps=343 q=-0.0 size=N/A time=00:20:33.02 bitrate=N/A speed=14.3x    frame=29731 fps=343 q=-0.0 size=N/A time=00:20:40.03 bitrate=N/A speed=14.3x    frame=29897 fps=343 q=-0.0 size=N/A time=00:20:46.95 bitrate=N/A speed=14.3x    frame=30043 fps=342 q=-0.0 size=N/A time=00:20:53.04 bitrate=N/A speed=14.3x    frame=30212 fps=342 q=-0.0 size=N/A time=00:21:00.09 bitrate=N/A speed=14.3x    frame=30390 fps=342 q=-0.0 size=N/A time=00:21:07.51 bitrate=N/A speed=14.3x    frame=30565 fps=342 q=-0.0 size=N/A time=00:21:14.81 bitrate=N/A speed=14.3x    frame=30738 fps=342 q=-0.0 size=N/A time=00:21:22.03 bitrate=N/A speed=14.3x    frame=30914 fps=342 q=-0.0 size=N/A time=00:21:29.37 bitrate=N/A speed=14.3x    frame=31099 fps=342 q=-0.0 size=N/A time=00:21:37.08 bitrate=N/A speed=14.3x    frame=31276 fps=342 q=-0.0 size=N/A time=00:21:44.46 bitrate=N/A speed=14.3x    frame=31452 fps=342 q=-0.0 size=N/A time=00:21:51.81 bitrate=N/A speed=14.3x    frame=31635 fps=342 q=-0.0 size=N/A time=00:21:59.44 bitrate=N/A speed=14.3x    frame=31803 fps=342 q=-0.0 size=N/A time=00:22:06.45 bitrate=N/A speed=14.3x    frame=31974 fps=342 q=-0.0 size=N/A time=00:22:13.58 bitrate=N/A speed=14.3x    frame=32151 fps=342 q=-0.0 size=N/A time=00:22:20.96 bitrate=N/A speed=14.3x    frame=32329 fps=342 q=-0.0 size=N/A time=00:22:28.38 bitrate=N/A speed=14.3x    frame=32503 fps=342 q=-0.0 size=N/A time=00:22:35.64 bitrate=N/A speed=14.3x    frame=32657 fps=342 q=-0.0 size=N/A time=00:22:42.06 bitrate=N/A speed=14.3x    frame=32811 fps=342 q=-0.0 size=N/A time=00:22:48.49 bitrate=N/A speed=14.3x    frame=32980 fps=342 q=-0.0 size=N/A time=00:22:55.54 bitrate=N/A speed=14.3x    frame=33156 fps=342 q=-0.0 size=N/A time=00:23:02.88 bitrate=N/A speed=14.3x    frame=33326 fps=342 q=-0.0 size=N/A time=00:23:09.97 bitrate=N/A speed=14.3x    frame=33489 fps=342 q=-0.0 size=N/A time=00:23:16.77 bitrate=N/A speed=14.2x    frame=33640 fps=341 q=-0.0 size=N/A time=00:23:23.06 bitrate=N/A speed=14.2x    frame=33776 fps=341 q=-0.0 size=N/A time=00:23:28.74 bitrate=N/A speed=14.2x    frame=33902 fps=340 q=-0.0 size=N/A time=00:23:33.99 bitrate=N/A speed=14.2x    frame=34054 fps=340 q=-0.0 size=N/A time=00:23:40.33 bitrate=N/A speed=14.2x    frame=34215 fps=340 q=-0.0 size=N/A time=00:23:47.05 bitrate=N/A speed=14.2x    frame=34356 fps=340 q=-0.0 size=N/A time=00:23:52.93 bitrate=N/A speed=14.2x    frame=34486 fps=339 q=-0.0 size=N/A time=00:23:58.35 bitrate=N/A speed=14.2x    frame=34664 fps=339 q=-0.0 size=N/A time=00:24:05.77 bitrate=N/A speed=14.2x    [Parsed_ssim_16 @ 0000024998bbaf80] SSIM Y:0.994162 (22.337253) U:0.993978 (22.202356) V:0.993584 (21.927613) All:0.994035 (22.243833)
[out#0/null @ 000002498be8dec0] video:14903KiB audio:271276KiB subtitle:0KiB other streams:0KiB global headers:0KiB muxing overhead: unknown
frame=34683 fps=339 q=-0.0 Lsize=N/A time=00:24:06.57 bitrate=N/A speed=14.2x    
